{"title":"Family Guy S14E09 1080p WEB-DL DD5.1 H264-CtrlHD[rartv]","uid":13022563,"size":849905686,"categoryP":"video","categoryS":"hd___tv_shows","magnet":"?xt=urn:btih:3f155e564b15ddcc11a1d4a725f9ebbcf6ed0c0a&amp;dn=Family+Guy+S14E09+1080p+WEB-DL+DD5.1+H264-CtrlHD%5Brartv%5D&amp;tr=udp%3A%2F%2Ftracker.leechers-paradise.org%3A6969&amp;tr=udp%3A%2F%2Fzer0day.ch%3A1337&amp;tr=udp%3A%2F%2Fopen.demonii.com%3A1337&amp;tr=udp%3A%2F%2Ftracker.coppersurfer.tk%3A6969&amp;tr=udp%3A%2F%2Fexodus.desync.com%3A6969","seeders":0,"leechers":0,"uploader":"cheerfulcaca","files":3,"time":1450369227,"description":"FAMILY GUY, SEASON 14, EPISODE 9 &quot;A SHOT IN THE DARK&quot; SYNOPSIS:\r\n\r\nA couch stolen from Peter's front lawn prompts the guys to form a neighborhood watch group. While on patrol, Peter shoots someone climbing into Cleveland's house and is arrested and charged with a hate crime. \r\n\r\n\r\nSERIES INFO:\r\n\r\n8.3/10·IMDb\r\n8.9/10·TV.com\r\n\r\nSick, twisted and politically incorrect, the animated series features the adventures of the Griffin family. Endearingly ignorant Peter and his stay-at-home wife Lois reside in Quahog, R.I., and have three kids. Meg, the eldest child, is a social outcast, and teenage Chris is awkward and clueless when it comes to the opposite sex. The youngest, Stewie, is a genius baby bent on killing his mother and destroying the world. The talking dog, Brian, keeps Stewie in check while sipping martinis and sorting through his own life issues.\r\n\r\n\r\nMEDIA INFO:\r\n\r\nGeneral:\r\n\r\nUnique ID                                : 244768280124882315849317765416599626882 (0xB824A7F075933929A954C3E89DD72482)\r\nComplete name                            : Family.Guy.S14E09.A.Shot.in.the.Dark.1080p.WEB-DL.DD5.1.H.264-CtrlHD.mkv\r\nFormat                                   : Matroska\r\nFormat version                           : Version 4 / Version 2\r\nFile size                                : 810 MiB\r\nDuration                                 : 21mn 35s\r\nOverall bit rate                         : 5 250 Kbps\r\nEncoded date                             : UTC 2015-12-15 00:59:28\r\nWriting application                      : mkvmerge v8.6.0 ('A Place In Your World') 64bit\r\nWriting library                          : libebml v1.3.3 + libmatroska v1.4.4\r\nAttachements                             : small_cover.jpg / cover.jpg / cover_land.jpg / small_cover_land.jpg\r\n\r\nVideo:\r\n\r\nID                                       : 1\r\nFormat                                   : AVC\r\nFormat/Info                              : Advanced Video Codec\r\nFormat profile                           :   \r\nFormat settings, CABAC                   : Yes\r\nFormat settings, ReFrames                : 4 frames\r\nCodec ID                                 : V_MPEG4/ISO/AVC\r\nDuration                                 : 21mn 35s\r\nBit rate                                 : 4 864 Kbps\r\nWidth                                    : 1 920 pixels\r\nHeight                                   : 1 080 pixels\r\nDisplay aspect ratio                     : 16:9\r\nFrame rate mode                          : Constant\r\nFrame rate                               : 23.976 (24000/1001) fps\r\nColor space                              : YUV\r\nChroma subsampling                       : 4:2:0\r\nBit depth                                : 8 bits\r\nScan type                                : Progressive\r\nBits/(Pixel*Frame)                       : 0.098\r\nStream size                              : 751 MiB (93%)\r\nLanguage                                 : English\r\nDefault                                  : Yes\r\nForced                                   : No\r\nColor range                              : Limited\r\nColor primaries                          : BT.709\r\nTransfer characteristics                 : BT.709\r\nMatrix coefficients                      : BT.709\r\n\r\nAudio:\r\n\r\nID                                       : 2\r\nFormat                                   : AC-3\r\nFormat/Info                              : Audio Coding 3\r\nMode extension                           : CM (complete main)\r\nFormat settings, Endianness              : Big\r\nCodec ID                                 : A_AC3\r\nDuration                                 : 21mn 34s\r\nBit rate mode                            : Constant\r\nBit rate                                 : 384 Kbps\r\nChannel(s)                               : 6 channels\r\nChannel positions                        : Front: L C R, Side: L R, LFE\r\nSampling rate                            : 48.0 KHz\r\nFrame rate                               : 31.250 fps (1536 spf)\r\nCompression mode                         : Lossy\r\nDelay relative to video                  : 29ms\r\nStream size                              : 59.3 MiB (7%)\r\nLanguage                                 : English\r\nDefault                                  : Yes\r\nForced                                   : No\r\n\r\nText:\r\n\r\nID                                       : 3\r\nFormat                                   : UTF-8\r\nCodec ID                                 : S_TEXT/UTF8\r\nCodec ID/Info                            : UTF-8 Plain Text\r\nDuration                                 : 21mn 32s\r\nBit rate                                 : 109 bps\r\nCount of elements                        : 513\r\nStream size                              : 17.2 KiB (0%)\r\nLanguage                                 : English\r\nDefault                                  : Yes\r\nForced                                   : No\r\n\r\n \nhttps://rarbg.to","torrent":{"xt":"urn:btih:3f155e564b15ddcc11a1d4a725f9ebbcf6ed0c0a","amp;dn":"Family+Guy+S14E09+1080p+WEB-DL+DD5.1+H264-CtrlHD%5Brartv%5D","amp;tr":["udp%3A%2F%2Ftracker.leechers-paradise.org%3A6969","udp%3A%2F%2Fzer0day.ch%3A1337","udp%3A%2F%2Fopen.demonii.com%3A1337","udp%3A%2F%2Ftracker.coppersurfer.tk%3A6969","udp%3A%2F%2Fexodus.desync.com%3A6969"],"infoHash":"3f155e564b15ddcc11a1d4a725f9ebbcf6ed0c0a","infoHashBuffer":{"type":"Buffer","data":[63,21,94,86,75,21,221,204,17,161,212,167,37,249,235,188,246,237,12,10]},"announce":[],"urlList":[]}}